<svg width="64" height="64" viewBox="0 0 64 64" fill="none" xmlns="http://www.w3.org/2000/svg">
<circle cx="32" cy="32" r="32" fill="#EDF9FE"/>
<path fill-rule="evenodd" clip-rule="evenodd" d="M30 33C26.141 33 23 36.14 23 40C23 40.552 23.447 41 24 41C24.553 41 25 40.552 25 40C25 37.243 27.243 35 30 35C32.757 35 35 37.243 35 40C35 40.552 35.447 41 36 41C36.553 41 37 40.552 37 40C37 36.14 33.859 33 30 33ZM28 27C28 28.103 28.897 29 30 29C31.103 29 32 28.103 32 27C32 25.897 31.103 25 30 25C28.897 25 28 25.897 28 27ZM26 27C26 24.794 27.794 23 30 23C32.206 23 34 24.794 34 27C34 29.206 32.206 31 30 31C27.794 31 26 29.206 26 27ZM42 27C42 27.55 41.55 28 41 28H40V29C40 29.55 39.55 30 39 30C38.45 30 38 29.55 38 29V28H37C36.45 28 36 27.55 36 27C36 26.45 36.45 26 37 26H38V25C38 24.45 38.45 24 39 24C39.55 24 40 24.45 40 25V26H41C41.55 26 42 26.45 42 27Z" fill="#5CAAD8"/>
</svg>
