<svg width="64" height="64" viewBox="0 0 64 64" fill="none" xmlns="http://www.w3.org/2000/svg">
<circle cx="32" cy="32" r="32" fill="#FDEEEF"/>
<path fill-rule="evenodd" clip-rule="evenodd" d="M36.889 38.3185C36.717 37.8855 36.473 37.5075 36.259 37.1845C36.151 37.0225 36.04 36.8575 35.943 36.6875C35.554 36.0115 35.688 35.7375 36.319 34.6805L36.421 34.5075C36.932 33.6465 36.96 32.8205 36.986 32.0925C36.998 31.7345 37.01 31.3975 37.079 31.0805C37.24 30.3485 38.787 30.1535 39.746 30.0385C39.907 30.6675 40 31.3225 40 32.0005C40 34.5695 38.778 36.8535 36.889 38.3185ZM24.962 35.7995C25.598 35.9615 26.287 36.0735 26.988 36.0735C28.068 36.0735 29.171 35.8095 30.125 35.0625C31.841 33.7205 31.841 32.0045 31.841 30.6245C31.841 29.7325 31.841 28.9635 32.213 28.2805C32.413 27.9145 32.839 27.6605 33.332 27.3655C33.634 27.1845 33.947 26.9985 34.247 26.7625C34.89 26.2595 35.368 25.6125 35.664 24.8965C37.064 25.6215 38.224 26.7445 38.99 28.1195C37.562 28.3175 35.535 28.7855 35.126 30.6525C35.018 31.1465 35.001 31.6115 34.988 32.0225C34.967 32.6055 34.951 33.0665 34.701 33.4885L34.601 33.6565C33.954 34.7395 33.222 35.9675 34.209 37.6845C34.328 37.8925 34.461 38.0925 34.592 38.2915C34.936 38.8075 35.105 39.0925 35.106 39.3725C34.151 39.7765 33.101 40.0005 32 40.0005C28.963 40.0005 26.317 38.2985 24.962 35.7995ZM32 24.0005C32.616 24.0005 33.211 24.0765 33.787 24.2085C33.618 24.5805 33.357 24.9195 33.013 25.1885C32.795 25.3605 32.55 25.5035 32.307 25.6485C31.656 26.0365 30.919 26.4765 30.457 27.3225C29.841 28.4525 29.841 29.6065 29.841 30.6245C29.841 31.9795 29.797 32.7805 28.893 33.4875C27.524 34.5605 25.429 33.9615 24.133 33.4165C24.051 32.9555 24 32.4835 24 32.0005C24 27.5895 27.589 24.0005 32 24.0005ZM32 22.0005C26.486 22.0005 22 26.4865 22 32.0005C22 37.5135 26.486 42.0005 32 42.0005C37.514 42.0005 42 37.5135 42 32.0005C42 26.4865 37.514 22.0005 32 22.0005Z" fill="#C77076"/>
<mask id="mask0" mask-type="alpha" maskUnits="userSpaceOnUse" x="22" y="22" width="20" height="21">
<path fill-rule="evenodd" clip-rule="evenodd" d="M36.889 38.3185C36.717 37.8855 36.473 37.5075 36.259 37.1845C36.151 37.0225 36.04 36.8575 35.943 36.6875C35.554 36.0115 35.688 35.7375 36.319 34.6805L36.421 34.5075C36.932 33.6465 36.96 32.8205 36.986 32.0925C36.998 31.7345 37.01 31.3975 37.079 31.0805C37.24 30.3485 38.787 30.1535 39.746 30.0385C39.907 30.6675 40 31.3225 40 32.0005C40 34.5695 38.778 36.8535 36.889 38.3185ZM24.962 35.7995C25.598 35.9615 26.287 36.0735 26.988 36.0735C28.068 36.0735 29.171 35.8095 30.125 35.0625C31.841 33.7205 31.841 32.0045 31.841 30.6245C31.841 29.7325 31.841 28.9635 32.213 28.2805C32.413 27.9145 32.839 27.6605 33.332 27.3655C33.634 27.1845 33.947 26.9985 34.247 26.7625C34.89 26.2595 35.368 25.6125 35.664 24.8965C37.064 25.6215 38.224 26.7445 38.99 28.1195C37.562 28.3175 35.535 28.7855 35.126 30.6525C35.018 31.1465 35.001 31.6115 34.988 32.0225C34.967 32.6055 34.951 33.0665 34.701 33.4885L34.601 33.6565C33.954 34.7395 33.222 35.9675 34.209 37.6845C34.328 37.8925 34.461 38.0925 34.592 38.2915C34.936 38.8075 35.105 39.0925 35.106 39.3725C34.151 39.7765 33.101 40.0005 32 40.0005C28.963 40.0005 26.317 38.2985 24.962 35.7995ZM32 24.0005C32.616 24.0005 33.211 24.0765 33.787 24.2085C33.618 24.5805 33.357 24.9195 33.013 25.1885C32.795 25.3605 32.55 25.5035 32.307 25.6485C31.656 26.0365 30.919 26.4765 30.457 27.3225C29.841 28.4525 29.841 29.6065 29.841 30.6245C29.841 31.9795 29.797 32.7805 28.893 33.4875C27.524 34.5605 25.429 33.9615 24.133 33.4165C24.051 32.9555 24 32.4835 24 32.0005C24 27.5895 27.589 24.0005 32 24.0005ZM32 22.0005C26.486 22.0005 22 26.4865 22 32.0005C22 37.5135 26.486 42.0005 32 42.0005C37.514 42.0005 42 37.5135 42 32.0005C42 26.4865 37.514 22.0005 32 22.0005Z" fill="white"/>
</mask>
<g mask="url(#mask0)">
</g>
</svg>
