<svg width="64" height="64" viewBox="0 0 64 64" fill="none" xmlns="http://www.w3.org/2000/svg">
<circle cx="32" cy="32" r="32" fill="#E9FEEF"/>
<path fill-rule="evenodd" clip-rule="evenodd" d="M32 30.9995C31.173 30.9995 30.5 30.3265 30.5 29.4995C30.5 28.6725 31.173 27.9995 32 27.9995C32.827 27.9995 33.5 28.6725 33.5 29.4995C33.5 30.3265 32.827 30.9995 32 30.9995M32 25.9995C30.07 25.9995 28.5 27.5695 28.5 29.4995C28.5 31.4295 30.07 32.9995 32 32.9995C33.93 32.9995 35.5 31.4295 35.5 29.4995C35.5 27.5695 33.93 25.9995 32 25.9995M32 39.646C30.325 38.062 26 33.615 26 29.922C26 26.657 28.691 24 32 24C35.309 24 38 26.657 38 29.922C38 33.615 33.675 38.062 32 39.646M32 22C27.589 22 24 25.553 24 29.922C24 35.397 31.049 41.501 31.349 41.758C31.537 41.919 31.768 42 32 42C32.232 42 32.463 41.919 32.651 41.758C32.951 41.501 40 35.397 40 29.922C40 25.553 36.411 22 32 22" fill="#599565"/>
<mask id="mask0" mask-type="alpha" maskUnits="userSpaceOnUse" x="24" y="22" width="16" height="20">
<path fill-rule="evenodd" clip-rule="evenodd" d="M32 30.9995C31.173 30.9995 30.5 30.3265 30.5 29.4995C30.5 28.6725 31.173 27.9995 32 27.9995C32.827 27.9995 33.5 28.6725 33.5 29.4995C33.5 30.3265 32.827 30.9995 32 30.9995M32 25.9995C30.07 25.9995 28.5 27.5695 28.5 29.4995C28.5 31.4295 30.07 32.9995 32 32.9995C33.93 32.9995 35.5 31.4295 35.5 29.4995C35.5 27.5695 33.93 25.9995 32 25.9995M32 39.646C30.325 38.062 26 33.615 26 29.922C26 26.657 28.691 24 32 24C35.309 24 38 26.657 38 29.922C38 33.615 33.675 38.062 32 39.646M32 22C27.589 22 24 25.553 24 29.922C24 35.397 31.049 41.501 31.349 41.758C31.537 41.919 31.768 42 32 42C32.232 42 32.463 41.919 32.651 41.758C32.951 41.501 40 35.397 40 29.922C40 25.553 36.411 22 32 22" fill="white"/>
</mask>
<g mask="url(#mask0)">
</g>
</svg>
