<svg width="64" height="64" viewBox="0 0 64 64" fill="none" xmlns="http://www.w3.org/2000/svg">
<circle cx="32" cy="32" r="32" fill="#FBEFE7"/>
<path fill-rule="evenodd" clip-rule="evenodd" d="M31.821 35.506C31.99 35.506 32.16 35.549 32.313 35.635L37 38.286V25.334C37 25.133 36.879 25 36.8 25H27.2C27.12 25 27 25.133 27 25.334V38.234L31.306 35.649C31.465 35.554 31.643 35.506 31.821 35.506ZM26 41C25.83 41 25.66 40.957 25.507 40.87C25.194 40.693 25 40.36 25 40V25.334C25 24.047 25.987 23 27.2 23H36.8C38.013 23 39 24.047 39 25.334V40C39 40.356 38.811 40.685 38.504 40.864C38.196 41.044 37.818 41.047 37.508 40.871L31.836 37.663L26.514 40.858C26.356 40.952 26.178 41 26 41Z" fill="#DB7C3D"/>
<mask id="mask0" mask-type="alpha" maskUnits="userSpaceOnUse" x="25" y="23" width="14" height="19">
<path fill-rule="evenodd" clip-rule="evenodd" d="M31.821 35.506C31.99 35.506 32.16 35.549 32.313 35.635L37 38.286V25.334C37 25.133 36.879 25 36.8 25H27.2C27.12 25 27 25.133 27 25.334V38.234L31.306 35.649C31.465 35.554 31.643 35.506 31.821 35.506ZM26 41C25.83 41 25.66 40.957 25.507 40.87C25.194 40.693 25 40.36 25 40V25.334C25 24.047 25.987 23 27.2 23H36.8C38.013 23 39 24.047 39 25.334V40C39 40.356 38.811 40.685 38.504 40.864C38.196 41.044 37.818 41.047 37.508 40.871L31.836 37.663L26.514 40.858C26.356 40.952 26.178 41 26 41Z" fill="white"/>
</mask>
<g mask="url(#mask0)">
</g>
</svg>
