<svg width="64" height="64" viewBox="0 0 64 64" fill="none" xmlns="http://www.w3.org/2000/svg">
<circle cx="32" cy="32" r="32" fill="#FEF6D7"/>
<path fill-rule="evenodd" clip-rule="evenodd" d="M25.8659 29.0985L31.0639 30.1555C31.4579 30.2345 31.7649 30.5415 31.8449 30.9355L32.9009 36.1335L36.4189 25.5805L25.8659 29.0985ZM32.6669 40.9995C32.6459 40.9995 32.6259 40.9985 32.6059 40.9975C32.1539 40.9705 31.7769 40.6425 31.6859 40.1995L30.0169 31.9825L21.8009 30.3125C21.3569 30.2225 21.0289 29.8455 21.0019 29.3935C20.9739 28.9415 21.2539 28.5275 21.6829 28.3845L37.6829 23.0515C38.0429 22.9295 38.4389 23.0245 38.7069 23.2925C38.9749 23.5605 39.0679 23.9565 38.9489 24.3165L33.6149 40.3165C33.4779 40.7265 33.0949 40.9995 32.6669 40.9995Z" fill="#D1AC3A"/>
<mask id="mask0" mask-type="alpha" maskUnits="userSpaceOnUse" x="21" y="22" width="18" height="19">
<path fill-rule="evenodd" clip-rule="evenodd" d="M25.8659 29.0985L31.0639 30.1555C31.4579 30.2345 31.7649 30.5415 31.8449 30.9355L32.9009 36.1335L36.4189 25.5805L25.8659 29.0985ZM32.6669 40.9995C32.6459 40.9995 32.6259 40.9985 32.6059 40.9975C32.1539 40.9705 31.7769 40.6425 31.6859 40.1995L30.0169 31.9825L21.8009 30.3125C21.3569 30.2225 21.0289 29.8455 21.0019 29.3935C20.9739 28.9415 21.2539 28.5275 21.6829 28.3845L37.6829 23.0515C38.0429 22.9295 38.4389 23.0245 38.7069 23.2925C38.9749 23.5605 39.0679 23.9565 38.9489 24.3165L33.6149 40.3165C33.4779 40.7265 33.0949 40.9995 32.6669 40.9995Z" fill="white"/>
</mask>
<g mask="url(#mask0)">
</g>
</svg>
