<svg width="64" height="64" viewBox="0 0 64 64" fill="none" xmlns="http://www.w3.org/2000/svg">
<circle cx="32" cy="32" r="32" fill="#F4F4FE"/>
<path fill-rule="evenodd" clip-rule="evenodd" d="M27 36C27 35.45 27.45 35 28 35C28.55 35 29 35.45 29 36C29 36.55 28.55 37 28 37C27.45 37 27 36.55 27 36ZM32 35H36C36.55 35 37 35.45 37 36C37 36.55 36.55 37 36 37H32C31.45 37 31 36.55 31 36C31 35.45 31.45 35 32 35ZM38 40H26C25.449 40 25 39.551 25 39V33H39V39C39 39.551 38.551 40 38 40ZM26 26H27V27C27 27.55 27.45 28 28 28C28.55 28 29 27.55 29 27V26H35V27C35 27.55 35.45 28 36 28C36.55 28 37 27.55 37 27V26H38C38.551 26 39 26.449 39 27V31H25V27C25 26.449 25.449 26 26 26ZM38 24H37V23C37 22.45 36.55 22 36 22C35.45 22 35 22.45 35 23V24H29V23C29 22.45 28.55 22 28 22C27.45 22 27 22.45 27 23V24H26C24.346 24 23 25.346 23 27V39C23 40.654 24.346 42 26 42H38C39.654 42 41 40.654 41 39V27C41 25.346 39.654 24 38 24Z" fill="#565BCF"/>
<mask id="mask0" mask-type="alpha" maskUnits="userSpaceOnUse" x="23" y="22" width="18" height="20">
<path fill-rule="evenodd" clip-rule="evenodd" d="M27 36C27 35.45 27.45 35 28 35C28.55 35 29 35.45 29 36C29 36.55 28.55 37 28 37C27.45 37 27 36.55 27 36ZM32 35H36C36.55 35 37 35.45 37 36C37 36.55 36.55 37 36 37H32C31.45 37 31 36.55 31 36C31 35.45 31.45 35 32 35ZM38 40H26C25.449 40 25 39.551 25 39V33H39V39C39 39.551 38.551 40 38 40ZM26 26H27V27C27 27.55 27.45 28 28 28C28.55 28 29 27.55 29 27V26H35V27C35 27.55 35.45 28 36 28C36.55 28 37 27.55 37 27V26H38C38.551 26 39 26.449 39 27V31H25V27C25 26.449 25.449 26 26 26ZM38 24H37V23C37 22.45 36.55 22 36 22C35.45 22 35 22.45 35 23V24H29V23C29 22.45 28.55 22 28 22C27.45 22 27 22.45 27 23V24H26C24.346 24 23 25.346 23 27V39C23 40.654 24.346 42 26 42H38C39.654 42 41 40.654 41 39V27C41 25.346 39.654 24 38 24Z" fill="white"/>
</mask>
<g mask="url(#mask0)">
</g>
</svg>
